<svg version="1.1" id="Layer_1" xmlns="http://www.w3.org/2000/svg" xmlns:xlink="http://www.w3.org/1999/xlink" x="0px" y="0px"
	 width="100%" viewBox="0 0 1132 157" enable-background="new 0 0 1132 157" xml:space="preserve">
<path fill="#FFFFFF" opacity="1.000000" stroke="none" 
	d="
M1089.000000,158.000000 
	C726.000000,158.000000 363.500000,158.000000 1.000000,158.000000 
	C1.000000,105.666664 1.000000,53.333332 1.000000,1.000000 
	C378.333344,1.000000 755.666687,1.000000 1133.000000,1.000000 
	C1133.000000,53.333332 1133.000000,105.666664 1133.000000,158.000000 
	C1118.500000,158.000000 1104.000000,158.000000 1089.000000,158.000000 
M186.524017,52.023468 
	C182.478775,47.890049 178.433533,43.756630 173.378891,38.591793 
	C164.629944,47.837776 156.345612,56.592766 147.663513,65.768120 
	C138.959915,56.924038 130.714401,48.545437 123.298599,41.009930 
	C114.613441,49.676125 106.059319,58.211563 97.343300,66.908546 
	C114.057793,84.000580 131.187866,101.517586 147.681396,118.383659 
	C165.252914,100.811882 182.400253,83.664299 199.561966,66.502319 
	C195.604660,62.095230 191.312271,57.314983 186.524017,52.023468 
z"/>
<path fill="#FCD405" opacity="1.000000" stroke="none" 
	d="
M186.771942,52.279106 
	C191.312271,57.314983 195.604660,62.095230 199.561966,66.502319 
	C182.400253,83.664299 165.252914,100.811882 147.681396,118.383659 
	C131.187866,101.517586 114.057793,84.000580 97.343300,66.908546 
	C106.059319,58.211563 114.613441,49.676125 123.298599,41.009930 
	C130.714401,48.545437 138.959915,56.924038 147.663513,65.768120 
	C156.345612,56.592766 164.629944,47.837776 173.378891,38.591793 
	C178.433533,43.756630 182.478775,47.890049 186.771942,52.279106 
z"/>
</svg>